<?xml version="1.0" encoding="UTF-8" standalone="no"?>
<svg
   height="18"
   viewBox="0 -960 720 720"
   width="18"
   fill="#5f6368"
   version="1.1"
   id="svg1"
   sodipodi:docname="search.svg"
   inkscape:version="1.3.2 (091e20ef0f, 2023-11-25, custom)"
   xmlns:inkscape="http://www.inkscape.org/namespaces/inkscape"
   xmlns:sodipodi="http://sodipodi.sourceforge.net/DTD/sodipodi-0.dtd"
   xmlns="http://www.w3.org/2000/svg"
   xmlns:svg="http://www.w3.org/2000/svg">
  <defs
     id="defs1" />
  <sodipodi:namedview
     id="namedview1"
     pagecolor="#ffffff"
     bordercolor="#000000"
     borderopacity="0.25"
     inkscape:showpageshadow="2"
     inkscape:pageopacity="0.0"
     inkscape:pagecheckerboard="0"
     inkscape:deskcolor="#d1d1d1"
     inkscape:zoom="50.25"
     inkscape:cx="8.9850746"
     inkscape:cy="8.9950249"
     inkscape:window-width="2560"
     inkscape:window-height="1410"
     inkscape:window-x="0"
     inkscape:window-y="0"
     inkscape:window-maximized="1"
     inkscape:current-layer="svg1" />
  <path
     d="M 664,-240 412,-492 q -30,24 -69,38 -39,14 -83,14 -109,0 -184.5,-75.5 Q 0,-591 0,-700 0,-809 75.5,-884.5 151,-960 260,-960 q 109,0 184.5,75.5 75.5,75.5 75.5,184.5 0,44 -14,83 -14,39 -38,69 l 252,252 z M 260,-520 q 75,0 127.5,-52.5 Q 440,-625 440,-700 440,-775 387.5,-827.5 335,-880 260,-880 185,-880 132.5,-827.5 80,-775 80,-700 q 0,75 52.5,127.5 Q 185,-520 260,-520 Z"
     id="path1"
     style="fill:#ffffff" />
</svg>
